<svg xmlns="http://www.w3.org/2000/svg" xmlns:xlink="http://www.w3.org/1999/xlink" width="100" zoomAndPan="magnify" viewBox="0 0 75 44.999999" height="60" preserveAspectRatio="xMidYMid meet" version="1.0"><defs><g/></defs><g fill="#ffffff" fill-opacity="1"><g transform="translate(0.000000833333, 15.882352)"><g><path d="M 9.015625 -3.5 C 9.015625 -2.363281 8.601562 -1.46875 7.78125 -0.8125 C 6.96875 -0.15625 5.832031 0.171875 4.375 0.171875 C 3.03125 0.171875 1.84375 -0.078125 0.8125 -0.578125 L 0.8125 -3.0625 C 1.65625 -2.6875 2.367188 -2.421875 2.953125 -2.265625 C 3.546875 -2.109375 4.085938 -2.03125 4.578125 -2.03125 C 5.171875 -2.03125 5.625 -2.140625 5.9375 -2.359375 C 6.25 -2.585938 6.40625 -2.925781 6.40625 -3.375 C 6.40625 -3.613281 6.332031 -3.828125 6.1875 -4.015625 C 6.050781 -4.210938 5.847656 -4.398438 5.578125 -4.578125 C 5.316406 -4.753906 4.773438 -5.039062 3.953125 -5.4375 C 3.179688 -5.800781 2.601562 -6.148438 2.21875 -6.484375 C 1.832031 -6.816406 1.523438 -7.203125 1.296875 -7.640625 C 1.066406 -8.078125 0.953125 -8.59375 0.953125 -9.1875 C 0.953125 -10.300781 1.328125 -11.175781 2.078125 -11.8125 C 2.835938 -12.457031 3.882812 -12.78125 5.21875 -12.78125 C 5.875 -12.78125 6.5 -12.703125 7.09375 -12.546875 C 7.6875 -12.390625 8.304688 -12.171875 8.953125 -11.890625 L 8.09375 -9.8125 C 7.425781 -10.082031 6.867188 -10.269531 6.421875 -10.375 C 5.984375 -10.488281 5.554688 -10.546875 5.140625 -10.546875 C 4.628906 -10.546875 4.238281 -10.425781 3.96875 -10.1875 C 3.695312 -9.957031 3.5625 -9.65625 3.5625 -9.28125 C 3.5625 -9.039062 3.613281 -8.832031 3.71875 -8.65625 C 3.832031 -8.476562 4.007812 -8.304688 4.25 -8.140625 C 4.488281 -7.984375 5.050781 -7.691406 5.9375 -7.265625 C 7.113281 -6.703125 7.921875 -6.140625 8.359375 -5.578125 C 8.796875 -5.015625 9.015625 -4.320312 9.015625 -3.5 Z M 9.015625 -3.5 "/></g></g><g transform="translate(9.719669, 15.882352)"><g><path d="M 9.296875 0 L 8.375 -3 L 3.796875 -3 L 2.875 0 L 0 0 L 4.4375 -12.640625 L 7.703125 -12.640625 L 12.171875 0 Z M 7.75 -5.234375 C 6.90625 -7.953125 6.425781 -9.488281 6.3125 -9.84375 C 6.207031 -10.195312 6.132812 -10.476562 6.09375 -10.6875 C 5.90625 -9.957031 5.363281 -8.140625 4.46875 -5.234375 Z M 7.75 -5.234375 "/></g></g><g transform="translate(21.895105, 15.882352)"><g><path d="M 12.75 0 L 9.359375 0 L 3.890625 -9.53125 L 3.8125 -9.53125 C 3.914062 -7.84375 3.96875 -6.640625 3.96875 -5.921875 L 3.96875 0 L 1.578125 0 L 1.578125 -12.59375 L 4.953125 -12.59375 L 10.421875 -3.15625 L 10.484375 -3.15625 C 10.398438 -4.789062 10.359375 -5.945312 10.359375 -6.625 L 10.359375 -12.59375 L 12.75 -12.59375 Z M 12.75 0 "/></g></g><g transform="translate(36.241956, 15.882352)"><g><path d="M 6.4375 0 L 3.765625 0 L 3.765625 -10.375 L 0.359375 -10.375 L 0.359375 -12.59375 L 9.859375 -12.59375 L 9.859375 -10.375 L 6.4375 -10.375 Z M 6.4375 0 "/></g></g><g transform="translate(46.461395, 15.882352)"><g><path d="M 13.015625 -6.3125 C 13.015625 -4.226562 12.5 -2.625 11.46875 -1.5 C 10.4375 -0.382812 8.953125 0.171875 7.015625 0.171875 C 5.085938 0.171875 3.609375 -0.382812 2.578125 -1.5 C 1.546875 -2.625 1.03125 -4.234375 1.03125 -6.328125 C 1.03125 -8.421875 1.546875 -10.019531 2.578125 -11.125 C 3.617188 -12.238281 5.101562 -12.796875 7.03125 -12.796875 C 8.96875 -12.796875 10.445312 -12.238281 11.46875 -11.125 C 12.5 -10.007812 13.015625 -8.40625 13.015625 -6.3125 Z M 3.828125 -6.3125 C 3.828125 -4.90625 4.09375 -3.84375 4.625 -3.125 C 5.15625 -2.414062 5.953125 -2.0625 7.015625 -2.0625 C 9.148438 -2.0625 10.21875 -3.476562 10.21875 -6.3125 C 10.21875 -9.144531 9.15625 -10.5625 7.03125 -10.5625 C 5.96875 -10.5625 5.164062 -10.203125 4.625 -9.484375 C 4.09375 -8.773438 3.828125 -7.71875 3.828125 -6.3125 Z M 3.828125 -6.3125 "/></g></g><g transform="translate(60.50666, 15.882352)"><g><path d="M 9.015625 -3.5 C 9.015625 -2.363281 8.601562 -1.46875 7.78125 -0.8125 C 6.96875 -0.15625 5.832031 0.171875 4.375 0.171875 C 3.03125 0.171875 1.84375 -0.078125 0.8125 -0.578125 L 0.8125 -3.0625 C 1.65625 -2.6875 2.367188 -2.421875 2.953125 -2.265625 C 3.546875 -2.109375 4.085938 -2.03125 4.578125 -2.03125 C 5.171875 -2.03125 5.625 -2.140625 5.9375 -2.359375 C 6.25 -2.585938 6.40625 -2.925781 6.40625 -3.375 C 6.40625 -3.613281 6.332031 -3.828125 6.1875 -4.015625 C 6.050781 -4.210938 5.847656 -4.398438 5.578125 -4.578125 C 5.316406 -4.753906 4.773438 -5.039062 3.953125 -5.4375 C 3.179688 -5.800781 2.601562 -6.148438 2.21875 -6.484375 C 1.832031 -6.816406 1.523438 -7.203125 1.296875 -7.640625 C 1.066406 -8.078125 0.953125 -8.59375 0.953125 -9.1875 C 0.953125 -10.300781 1.328125 -11.175781 2.078125 -11.8125 C 2.835938 -12.457031 3.882812 -12.78125 5.21875 -12.78125 C 5.875 -12.78125 6.5 -12.703125 7.09375 -12.546875 C 7.6875 -12.390625 8.304688 -12.171875 8.953125 -11.890625 L 8.09375 -9.8125 C 7.425781 -10.082031 6.867188 -10.269531 6.421875 -10.375 C 5.984375 -10.488281 5.554688 -10.546875 5.140625 -10.546875 C 4.628906 -10.546875 4.238281 -10.425781 3.96875 -10.1875 C 3.695312 -9.957031 3.5625 -9.65625 3.5625 -9.28125 C 3.5625 -9.039062 3.613281 -8.832031 3.71875 -8.65625 C 3.832031 -8.476562 4.007812 -8.304688 4.25 -8.140625 C 4.488281 -7.984375 5.050781 -7.691406 5.9375 -7.265625 C 7.113281 -6.703125 7.921875 -6.140625 8.359375 -5.578125 C 8.796875 -5.015625 9.015625 -4.320312 9.015625 -3.5 Z M 9.015625 -3.5 "/></g></g></g><g fill="#ffffff" fill-opacity="1"><g transform="translate(12.683823, 40.147056)"><g><path d="M 6.4375 0 L 3.765625 0 L 3.765625 -10.375 L 0.359375 -10.375 L 0.359375 -12.59375 L 9.859375 -12.59375 L 9.859375 -10.375 L 6.4375 -10.375 Z M 6.4375 0 "/></g></g><g transform="translate(22.903262, 40.147056)"><g><path d="M 8.84375 0 L 1.578125 0 L 1.578125 -12.59375 L 8.84375 -12.59375 L 8.84375 -10.40625 L 4.25 -10.40625 L 4.25 -7.640625 L 8.515625 -7.640625 L 8.515625 -5.453125 L 4.25 -5.453125 L 4.25 -2.203125 L 8.84375 -2.203125 Z M 8.84375 0 "/></g></g><g transform="translate(32.786648, 40.147056)"><g><path d="M 6.9375 -10.546875 C 5.925781 -10.546875 5.144531 -10.164062 4.59375 -9.40625 C 4.039062 -8.65625 3.765625 -7.609375 3.765625 -6.265625 C 3.765625 -3.453125 4.820312 -2.046875 6.9375 -2.046875 C 7.820312 -2.046875 8.890625 -2.269531 10.140625 -2.71875 L 10.140625 -0.46875 C 9.109375 -0.0390625 7.957031 0.171875 6.6875 0.171875 C 4.851562 0.171875 3.453125 -0.378906 2.484375 -1.484375 C 1.515625 -2.597656 1.03125 -4.195312 1.03125 -6.28125 C 1.03125 -7.59375 1.265625 -8.738281 1.734375 -9.71875 C 2.210938 -10.707031 2.898438 -11.460938 3.796875 -11.984375 C 4.691406 -12.515625 5.738281 -12.78125 6.9375 -12.78125 C 8.15625 -12.78125 9.382812 -12.484375 10.625 -11.890625 L 9.765625 -9.71875 C 9.285156 -9.9375 8.804688 -10.128906 8.328125 -10.296875 C 7.859375 -10.460938 7.394531 -10.546875 6.9375 -10.546875 Z M 6.9375 -10.546875 "/></g></g><g transform="translate(44.031477, 40.147056)"><g><path d="M 11.90625 0 L 9.25 0 L 9.25 -5.4375 L 4.25 -5.4375 L 4.25 0 L 1.578125 0 L 1.578125 -12.59375 L 4.25 -12.59375 L 4.25 -7.65625 L 9.25 -7.65625 L 9.25 -12.59375 L 11.90625 -12.59375 Z M 11.90625 0 "/></g></g></g></svg>