<svg xmlns="http://www.w3.org/2000/svg" xmlns:xlink="http://www.w3.org/1999/xlink" width="75" zoomAndPan="magnify" viewBox="0 0 56.25 33.749999" height="45" preserveAspectRatio="xMidYMid meet" version="1.2"><g id="ecc96da282"><path style=" stroke:none;fill-rule:nonzero;fill:#000000;fill-opacity:1;" d="M 6.671875 9.261719 C 6.671875 10.105469 6.367188 10.765625 5.757812 11.253906 C 5.15625 11.738281 4.316406 11.980469 3.238281 11.980469 C 2.242188 11.980469 1.363281 11.796875 0.601562 11.425781 L 0.601562 9.585938 C 1.226562 9.863281 1.753906 10.0625 2.1875 10.175781 C 2.625 10.292969 3.023438 10.351562 3.386719 10.351562 C 3.828125 10.351562 4.164062 10.269531 4.394531 10.109375 C 4.625 9.941406 4.742188 9.6875 4.742188 9.355469 C 4.742188 9.179688 4.6875 9.019531 4.578125 8.882812 C 4.476562 8.738281 4.328125 8.597656 4.128906 8.464844 C 3.933594 8.335938 3.53125 8.125 2.925781 7.828125 C 2.351562 7.558594 1.925781 7.304688 1.640625 7.054688 C 1.355469 6.808594 1.128906 6.523438 0.960938 6.199219 C 0.789062 5.875 0.707031 5.492188 0.707031 5.054688 C 0.707031 4.230469 0.984375 3.582031 1.539062 3.109375 C 2.097656 2.632812 2.875 2.394531 3.863281 2.394531 C 4.347656 2.394531 4.8125 2.453125 5.25 2.566406 C 5.691406 2.683594 6.148438 2.84375 6.625 3.054688 L 5.992188 4.589844 C 5.496094 4.390625 5.082031 4.253906 4.753906 4.175781 C 4.429688 4.089844 4.109375 4.046875 3.804688 4.046875 C 3.425781 4.046875 3.136719 4.136719 2.9375 4.3125 C 2.734375 4.484375 2.636719 4.707031 2.636719 4.984375 C 2.636719 5.164062 2.675781 5.316406 2.753906 5.445312 C 2.835938 5.578125 2.964844 5.707031 3.144531 5.828125 C 3.320312 5.945312 3.738281 6.160156 4.394531 6.476562 C 5.265625 6.890625 5.863281 7.308594 6.1875 7.726562 C 6.511719 8.140625 6.671875 8.65625 6.671875 9.261719 Z M 6.671875 9.261719 "/><path style=" stroke:none;fill-rule:nonzero;fill:#000000;fill-opacity:1;" d="M 14.074219 11.855469 L 13.390625 9.632812 L 10.003906 9.632812 L 9.320312 11.855469 L 7.195312 11.855469 L 10.476562 2.496094 L 12.894531 2.496094 L 16.203125 11.855469 Z M 12.929688 7.980469 C 12.304688 5.96875 11.949219 4.832031 11.867188 4.566406 C 11.789062 4.308594 11.734375 4.101562 11.703125 3.945312 C 11.566406 4.484375 11.164062 5.828125 10.5 7.980469 Z M 12.929688 7.980469 "/><path style=" stroke:none;fill-rule:nonzero;fill:#000000;fill-opacity:1;" d="M 25.640625 11.855469 L 23.132812 11.855469 L 19.085938 4.800781 L 19.027344 4.800781 C 19.101562 6.046875 19.144531 6.9375 19.144531 7.472656 L 19.144531 11.855469 L 17.375 11.855469 L 17.375 2.53125 L 19.871094 2.53125 L 23.917969 9.519531 L 23.964844 9.519531 C 23.902344 8.308594 23.871094 7.453125 23.871094 6.949219 L 23.871094 2.53125 L 25.640625 2.53125 Z M 25.640625 11.855469 "/><path style=" stroke:none;fill-rule:nonzero;fill:#000000;fill-opacity:1;" d="M 31.589844 11.855469 L 29.609375 11.855469 L 29.609375 4.175781 L 27.089844 4.175781 L 27.089844 2.53125 L 34.121094 2.53125 L 34.121094 4.175781 L 31.589844 4.175781 Z M 31.589844 11.855469 "/><path style=" stroke:none;fill-rule:nonzero;fill:#000000;fill-opacity:1;" d="M 44.019531 7.179688 C 44.019531 8.726562 43.640625 9.910156 42.875 10.742188 C 42.113281 11.570312 41.015625 11.980469 39.578125 11.980469 C 38.152344 11.980469 37.058594 11.570312 36.296875 10.742188 C 35.53125 9.910156 35.152344 8.71875 35.152344 7.171875 C 35.152344 5.621094 35.53125 4.4375 36.296875 3.621094 C 37.066406 2.796875 38.164062 2.382812 39.589844 2.382812 C 41.027344 2.382812 42.117188 2.796875 42.875 3.621094 C 43.640625 4.445312 44.019531 5.632812 44.019531 7.179688 Z M 37.222656 7.179688 C 37.222656 8.222656 37.417969 9.007812 37.8125 9.539062 C 38.203125 10.066406 38.792969 10.328125 39.578125 10.328125 C 41.160156 10.328125 41.949219 9.28125 41.949219 7.179688 C 41.949219 5.085938 41.164062 4.035156 39.589844 4.035156 C 38.804688 4.035156 38.210938 4.300781 37.8125 4.835938 C 37.417969 5.359375 37.222656 6.140625 37.222656 7.179688 Z M 37.222656 7.179688 "/><path style=" stroke:none;fill-rule:nonzero;fill:#000000;fill-opacity:1;" d="M 51.457031 9.261719 C 51.457031 10.105469 51.148438 10.765625 50.542969 11.253906 C 49.941406 11.738281 49.097656 11.980469 48.019531 11.980469 C 47.027344 11.980469 46.148438 11.796875 45.382812 11.425781 L 45.382812 9.585938 C 46.007812 9.863281 46.535156 10.0625 46.96875 10.175781 C 47.40625 10.292969 47.808594 10.351562 48.171875 10.351562 C 48.609375 10.351562 48.945312 10.269531 49.175781 10.109375 C 49.410156 9.941406 49.523438 9.6875 49.523438 9.355469 C 49.523438 9.179688 49.46875 9.019531 49.363281 8.882812 C 49.261719 8.738281 49.109375 8.597656 48.910156 8.464844 C 48.71875 8.335938 48.316406 8.125 47.707031 7.828125 C 47.136719 7.558594 46.707031 7.304688 46.425781 7.054688 C 46.140625 6.808594 45.910156 6.523438 45.742188 6.199219 C 45.570312 5.875 45.488281 5.492188 45.488281 5.054688 C 45.488281 4.230469 45.765625 3.582031 46.320312 3.109375 C 46.882812 2.632812 47.65625 2.394531 48.644531 2.394531 C 49.132812 2.394531 49.59375 2.453125 50.03125 2.566406 C 50.472656 2.683594 50.929688 2.84375 51.410156 3.054688 L 50.773438 4.589844 C 50.277344 4.390625 49.867188 4.253906 49.535156 4.175781 C 49.210938 4.089844 48.894531 4.046875 48.585938 4.046875 C 48.207031 4.046875 47.917969 4.136719 47.71875 4.3125 C 47.519531 4.484375 47.417969 4.707031 47.417969 4.984375 C 47.417969 5.164062 47.457031 5.316406 47.535156 5.445312 C 47.617188 5.578125 47.75 5.707031 47.929688 5.828125 C 48.105469 5.945312 48.519531 6.160156 49.175781 6.476562 C 50.046875 6.890625 50.644531 7.308594 50.96875 7.726562 C 51.292969 8.140625 51.457031 8.65625 51.457031 9.261719 Z M 51.457031 9.261719 "/><path style=" stroke:none;fill-rule:nonzero;fill:#000000;fill-opacity:1;" d="M 14.152344 29.8125 L 12.175781 29.8125 L 12.175781 22.132812 L 9.652344 22.132812 L 9.652344 20.492188 L 16.683594 20.492188 L 16.683594 22.132812 L 14.152344 22.132812 Z M 14.152344 29.8125 "/><path style=" stroke:none;fill-rule:nonzero;fill:#000000;fill-opacity:1;" d="M 23.496094 29.8125 L 18.121094 29.8125 L 18.121094 20.492188 L 23.496094 20.492188 L 23.496094 22.109375 L 20.097656 22.109375 L 20.097656 24.15625 L 23.253906 24.15625 L 23.253906 25.777344 L 20.097656 25.777344 L 20.097656 28.183594 L 23.496094 28.183594 Z M 23.496094 29.8125 "/><path style=" stroke:none;fill-rule:nonzero;fill:#000000;fill-opacity:1;" d="M 29.402344 22.007812 C 28.652344 22.007812 28.074219 22.289062 27.667969 22.851562 C 27.257812 23.40625 27.054688 24.179688 27.054688 25.175781 C 27.054688 27.257812 27.835938 28.296875 29.402344 28.296875 C 30.054688 28.296875 30.847656 28.132812 31.773438 27.800781 L 31.773438 29.464844 C 31.007812 29.785156 30.15625 29.941406 29.214844 29.941406 C 27.855469 29.941406 26.820312 29.53125 26.105469 28.714844 C 25.386719 27.890625 25.03125 26.707031 25.03125 25.164062 C 25.03125 24.191406 25.203125 23.34375 25.550781 22.621094 C 25.902344 21.886719 26.410156 21.332031 27.078125 20.941406 C 27.738281 20.550781 28.511719 20.351562 29.402344 20.351562 C 30.304688 20.351562 31.210938 20.574219 32.128906 21.011719 L 31.496094 22.621094 C 31.136719 22.457031 30.78125 22.316406 30.429688 22.191406 C 30.082031 22.070312 29.738281 22.007812 29.402344 22.007812 Z M 29.402344 22.007812 "/><path style=" stroke:none;fill-rule:nonzero;fill:#000000;fill-opacity:1;" d="M 41.402344 29.8125 L 39.433594 29.8125 L 39.433594 25.789062 L 35.734375 25.789062 L 35.734375 29.8125 L 33.757812 29.8125 L 33.757812 20.492188 L 35.734375 20.492188 L 35.734375 24.144531 L 39.433594 24.144531 L 39.433594 20.492188 L 41.402344 20.492188 Z M 41.402344 29.8125 "/></g></svg>